<svg xmlns="http://www.w3.org/2000/svg" viewBox="0 0 480 90">
  <style>
    .label-he { font-family: 'Heebo', 'Assistant', sans-serif; font-size: 28px; font-weight: 700; }
    .label-en { font-family: 'Assistant', sans-serif; font-size: 20px; font-weight: 600; }
  </style>
  <rect width="480" height="90" fill="white" opacity="0"/>
  <text x="465" y="32" text-anchor="end" class="label-he">עיניים מנחות לעיוור בישראל</text>
  <text x="470" y="60" text-anchor="end" class="label-en">Seeing Eyes for the Blind in Israel</text>
  <g fill="#000">
    <circle cx="60" cy="28" r="9"/>
    <path d="M55 38h10v28h-10z"/>
    <path d="M45 60h30v8H45z"/>
    <path d="M80 54c8 0 14 6 14 14v10h-8v-9c0-3-2-5-5-5h-8v-10z"/>
    <path d="M95 68h10c6 0 11 5 11 11v7h-8v-5c0-2-2-4-4-4h-9v-9z"/>
    <path d="M116 67h6c7 0 13 6 13 13v7h-6v-6c0-3-2-5-5-5h-8v-9z"/>
    <circle cx="132" cy="78" r="5"/>
  </g>
</svg>
